<svg width="327" height="217" viewBox="0 0 327 217" fill="none" xmlns="http://www.w3.org/2000/svg">
<rect x="103" y="31" width="143" height="143" rx="71.5" fill="#E6F3EE"/>
<rect x="115" y="43" width="119" height="119" rx="59.5" fill="#4BB886"/>
<rect x="127" y="55" width="95" height="95" rx="47.5" fill="white"/>
<path d="M222 102.5C222 128.734 200.734 150 174.5 150C148.266 150 127 128.734 127 102.5C127 76.2665 148.266 55 174.5 55C200.734 55 222 76.2665 222 102.5ZM198.43 84.5074C196.691 82.7684 193.871 82.7684 192.132 84.5074C192.09 84.5494 192.051 84.5939 192.014 84.6406L171.397 110.912L158.967 98.4816C157.228 96.7426 154.408 96.7426 152.669 98.4816C150.93 100.221 150.93 103.04 152.669 104.779L168.382 120.493C170.121 122.232 172.941 122.232 174.68 120.493C174.719 120.454 174.755 120.413 174.79 120.37L198.493 90.7406C200.169 88.997 200.148 86.2251 198.43 84.5074Z" fill="#028759"/>
<path d="M98.5234 16.5208C98.5429 16.1101 98.7837 15.8183 99.1876 15.6562C99.5527 15.5084 99.9489 15.4076 100.33 15.2923C100.504 15.2382 100.683 15.1914 100.866 15.1554C101.444 15.0401 101.751 14.7339 101.938 14.2403C102.202 13.5378 102.555 12.8568 102.893 12.1723C102.982 11.9886 103.126 11.8229 103.266 11.6643C103.767 11.1023 104.497 11.1347 104.796 11.7976C105.064 12.3885 105.189 13.0334 105.325 13.6602C105.41 14.0529 105.414 14.4601 105.418 14.8636C105.418 15.0905 105.488 15.1914 105.767 15.2455C106.183 15.3247 106.591 15.4508 106.987 15.5913C107.197 15.667 107.391 15.7931 107.558 15.93C107.989 16.2902 107.958 16.755 107.438 17.018C106.999 17.2414 106.529 17.4359 106.043 17.5584C105.379 17.7241 105.08 18.0628 105.022 18.6536C104.967 19.2013 104.855 19.7525 104.692 20.2857C104.594 20.6063 104.4 20.927 104.156 21.1828C103.616 21.7484 102.827 21.6439 102.551 20.9558C102.318 20.3793 102.198 19.7705 102.058 19.1724C101.806 18.0736 101.969 18.2285 100.741 17.8322C100.24 17.6701 99.7237 17.5476 99.2304 17.3711C98.8031 17.2197 98.5351 16.9387 98.5273 16.5244L98.5234 16.5208Z" fill="#FF869F"/>
<path d="M35.6328 30.8036C37.136 30.1191 38.3672 29.5643 39.5908 28.9951C40.018 28.7969 40.4608 28.5519 40.8221 28.9951C41.1561 29.4022 40.8609 29.7589 40.4686 30.011C39.0043 30.9514 37.5283 31.8737 35.9746 32.8572C36.1804 33.0193 36.3863 33.1851 36.5999 33.3436C37.9749 34.374 39.3577 35.4007 40.7288 36.4383C41.1639 36.7662 41.529 37.1661 41.1211 37.6416C40.6861 38.1424 40.0763 37.9875 39.5752 37.6993C38.3323 36.9787 37.1243 36.2222 35.7881 35.4152C35.7571 35.7142 35.7376 35.952 35.7105 36.1861C35.5318 37.6561 35.3803 39.1332 35.1472 40.5959C35.0696 41.0967 34.9414 41.8172 34.1257 41.7307C33.3683 41.6551 33.5042 40.9453 33.477 40.4626C33.3799 38.636 33.3178 36.8058 33.244 34.9828C33.2362 34.7595 33.2207 34.5361 33.2013 34.1866C32.1797 34.6838 31.2863 35.1269 30.3813 35.5521C29.8531 35.8006 29.3209 36.042 28.7694 36.2438C28.2489 36.4311 27.6391 36.5536 27.3012 36.042C26.9632 35.5304 27.3944 35.163 27.8721 34.8891C28.8898 34.2983 29.9269 33.7291 30.9523 33.149C31.1776 33.0229 31.3873 32.886 31.667 32.7167C30.7348 32.0826 29.8375 31.5134 29.0024 30.8901C28.1207 30.2272 27.274 29.5319 26.4622 28.8113C26.0738 28.4691 25.798 28.0007 26.2485 27.5612C26.7108 27.1108 27.2701 27.327 27.7323 27.6008C29.3481 28.5627 30.9445 29.5463 32.5526 30.519C32.7701 30.6559 32.9993 30.7784 33.3489 30.9838C33.5042 29.8237 33.6557 28.7573 33.7878 27.6873C33.8616 27.064 33.8616 26.4371 33.9975 25.8247C34.0558 25.5653 34.3782 25.3491 34.5801 25.1113C34.8792 25.3311 35.3842 25.522 35.4386 25.7814C35.6017 26.5488 35.6056 27.345 35.6328 28.1304C35.66 28.9554 35.6405 29.7805 35.6405 30.8109L35.6328 30.8036Z" fill="#FBC02D"/>
<path d="M28.6793 52.6603C31.4216 52.6784 33.6783 54.6959 33.6511 57.1025C33.6278 59.5344 31.3555 61.487 28.5977 61.451C25.9138 61.415 23.7775 59.4335 23.7891 56.9944C23.8008 54.5302 25.9332 52.6387 28.6793 52.6603Z" fill="#A0A2FE"/>
<path d="M87.0096 9.1889e-05C88.3807 0.0109001 89.5071 1.01967 89.4955 2.22298C89.4838 3.4371 88.3496 4.41704 86.9669 4.39543C85.6268 4.37741 84.5548 3.38666 84.5625 2.16534C84.5664 0.9332 85.6346 -0.0107163 87.0096 9.1889e-05Z" fill="#4848B7"/>
<path d="M59.33 14.2306C60.6895 14.2414 61.8082 15.2393 61.7965 16.4354C61.7849 17.6424 60.6584 18.6115 59.2912 18.5899C57.9589 18.5719 56.8985 17.5883 56.9063 16.3778C56.9102 15.1565 57.9706 14.2198 59.3339 14.2306H59.33Z" fill="#A0A2FE"/>
<path d="M64.0095 40.4728C65.7768 40.4836 67.2256 41.7842 67.2101 43.3334C67.1945 44.9005 65.7341 46.1579 63.9551 46.1327C62.2266 46.1075 60.8516 44.8321 60.8594 43.2613C60.8672 41.6725 62.2383 40.4584 64.0095 40.4728Z" fill="#4848B7"/>
<path d="M2.42378 64.4571C3.78325 64.4679 4.9019 65.4659 4.89025 66.662C4.87859 67.8689 3.75218 68.838 2.38494 68.8164C1.05266 68.7984 -0.00772598 67.8149 4.24114e-05 66.6044C0.00392661 65.383 1.06431 64.4463 2.42767 64.4571H2.42378Z" fill="#FF869F"/>
<path d="M52.7363 63.0049C51.742 63.3292 50.9302 63.5922 50.1222 63.866C49.8426 63.9597 49.5435 64.0822 49.3532 63.7831C49.1784 63.5057 49.3881 63.304 49.6561 63.1707C50.6466 62.6843 51.641 62.2051 52.6858 61.6971C52.5693 61.5819 52.4528 61.4666 52.3362 61.3513C51.5594 60.6127 50.7787 59.8778 50.0018 59.1392C49.7571 58.905 49.559 58.6276 49.8542 58.361C50.165 58.0764 50.534 58.2169 50.8253 58.4295C51.5439 58.9627 52.2391 59.5175 53.0121 60.1155C53.0548 59.9318 53.0859 59.7841 53.1208 59.64C53.35 58.7321 53.5598 57.8206 53.82 56.9235C53.9093 56.6173 54.0453 56.1742 54.5463 56.2822C55.0163 56.3831 54.8726 56.8154 54.8532 57.1181C54.7716 58.2673 54.6629 59.413 54.5658 60.5587C54.5541 60.6992 54.5463 60.8397 54.5308 61.0595C55.2105 60.8181 55.8009 60.6019 56.3991 60.3966C56.7487 60.2777 57.1021 60.1624 57.4634 60.0759C57.8052 59.9931 58.1936 59.957 58.3645 60.3029C58.5354 60.6451 58.2363 60.8469 57.9178 60.9838C57.2342 61.2828 56.5428 61.5675 55.8553 61.8629C55.7038 61.9277 55.5601 61.9962 55.3737 62.0826C55.9058 62.5402 56.4224 62.9581 56.8963 63.4048C57.3935 63.8768 57.8673 64.3704 58.3179 64.8748C58.5315 65.1161 58.6675 65.426 58.3529 65.671C58.0305 65.9232 57.6964 65.7466 57.4284 65.5449C56.4962 64.8351 55.5757 64.111 54.6473 63.394C54.523 63.2932 54.391 63.1995 54.189 63.0518C53.9987 63.7651 53.8239 64.4244 53.653 65.0801C53.5559 65.462 53.5093 65.8583 53.3733 66.2294C53.3151 66.3879 53.0975 66.4996 52.9538 66.6365C52.7829 66.478 52.4838 66.3231 52.4683 66.1609C52.4295 65.671 52.4877 65.1738 52.5304 64.6802C52.5771 64.165 52.6586 63.6498 52.7402 63.0049H52.7363Z" fill="#A0A2FE"/>
<path d="M28.1328 79.0623C28.16 78.5399 28.463 78.1688 28.9796 77.9599C29.4457 77.7725 29.9467 77.6464 30.4361 77.4987C30.6575 77.4303 30.8867 77.369 31.1159 77.3222C31.8539 77.1781 32.2423 76.7854 32.4792 76.1585C32.8133 75.2614 33.2677 74.3968 33.695 73.5285C33.8076 73.2943 33.9902 73.0818 34.1689 72.88C34.8059 72.1631 35.7381 72.2063 36.1187 73.0493C36.4566 73.8023 36.6159 74.6201 36.7907 75.4235C36.8994 75.9243 36.9033 76.4431 36.9111 76.9547C36.915 77.2429 37.0043 77.3726 37.3578 77.4375C37.8899 77.5383 38.4065 77.6969 38.9115 77.877C39.1795 77.9707 39.4242 78.1364 39.6378 78.3093C40.1894 78.7669 40.1466 79.3613 39.4863 79.6964C38.9309 79.981 38.3288 80.2296 37.7112 80.3845C36.8645 80.5971 36.4877 81.0294 36.41 81.7788C36.3401 82.4777 36.1964 83.1802 35.9867 83.8575C35.8624 84.2646 35.6138 84.6754 35.303 84.9996C34.6194 85.7201 33.6134 85.5868 33.26 84.7078C32.9648 83.9764 32.8094 83.1982 32.6346 82.4345C32.3122 81.033 32.5181 81.2347 30.9566 80.7304C30.3196 80.525 29.6593 80.3665 29.0301 80.1431C28.4863 79.9522 28.1483 79.5919 28.1367 79.0623H28.1328Z" fill="#4848B7"/>
<path d="M91.098 41.3514C93.3819 41.3694 95.2619 43.0483 95.2386 45.0514C95.2192 47.0762 93.3275 48.7046 91.0281 48.6722C88.7947 48.6397 87.0118 46.9897 87.0235 44.9578C87.0313 42.9042 88.8102 41.3298 91.098 41.3478V41.3514Z" fill="#FBC02D"/>
<path d="M228.334 199.944C228.315 200.355 228.074 200.647 227.67 200.809C227.305 200.956 226.908 201.057 226.528 201.173C226.353 201.227 226.174 201.273 225.992 201.309C225.413 201.425 225.106 201.731 224.92 202.225C224.656 202.927 224.302 203.608 223.964 204.293C223.875 204.476 223.731 204.642 223.591 204.801C223.09 205.363 222.36 205.33 222.061 204.667C221.793 204.076 221.669 203.431 221.533 202.805C221.447 202.412 221.443 202.005 221.44 201.601C221.44 201.374 221.37 201.273 221.09 201.219C220.674 201.14 220.267 201.014 219.87 200.874C219.661 200.798 219.466 200.672 219.299 200.535C218.868 200.175 218.899 199.71 219.42 199.447C219.859 199.223 220.329 199.029 220.814 198.906C221.478 198.741 221.777 198.402 221.836 197.811C221.89 197.264 222.003 196.712 222.166 196.179C222.263 195.859 222.457 195.538 222.702 195.282C223.242 194.716 224.03 194.821 224.306 195.509C224.539 196.085 224.66 196.694 224.799 197.292C225.052 198.391 224.889 198.236 226.116 198.633C226.617 198.795 227.134 198.917 227.627 199.094C228.054 199.245 228.322 199.526 228.33 199.94L228.334 199.944Z" fill="#FF869F"/>
<path d="M291.225 185.661C289.721 186.346 288.49 186.901 287.267 187.47C286.839 187.668 286.397 187.913 286.035 187.47C285.701 187.063 285.997 186.706 286.389 186.454C287.853 185.513 289.329 184.591 290.883 183.608C290.677 183.446 290.471 183.28 290.257 183.121C288.882 182.091 287.5 181.064 286.129 180.027C285.694 179.699 285.328 179.299 285.736 178.823C286.171 178.322 286.781 178.477 287.282 178.766C288.525 179.486 289.733 180.243 291.069 181.05C291.1 180.751 291.12 180.513 291.147 180.279C291.326 178.809 291.477 177.332 291.71 175.869C291.788 175.368 291.916 174.648 292.732 174.734C293.489 174.81 293.353 175.519 293.38 176.002C293.477 177.829 293.54 179.659 293.613 181.482C293.621 181.705 293.637 181.929 293.656 182.278C294.678 181.781 295.571 181.338 296.476 180.913C297.004 180.664 297.536 180.423 298.088 180.221C298.609 180.034 299.218 179.911 299.556 180.423C299.894 180.934 299.463 181.302 298.985 181.576C297.968 182.167 296.931 182.736 295.905 183.316C295.68 183.442 295.47 183.579 295.19 183.748C296.123 184.382 297.02 184.951 297.855 185.575C298.737 186.238 299.583 186.933 300.395 187.654C300.784 187.996 301.059 188.464 300.609 188.904C300.147 189.354 299.587 189.138 299.125 188.864C297.509 187.902 295.913 186.919 294.305 185.946C294.087 185.809 293.858 185.686 293.509 185.481C293.353 186.641 293.202 187.708 293.07 188.778C292.996 189.401 292.996 190.028 292.86 190.64C292.802 190.9 292.479 191.116 292.277 191.354C291.978 191.134 291.473 190.943 291.419 190.683C291.256 189.916 291.252 189.12 291.225 188.334C291.197 187.509 291.217 186.684 291.217 185.654L291.225 185.661Z" fill="#FBC02D"/>
<path d="M298.178 163.805C295.436 163.786 293.179 161.769 293.206 159.362C293.23 156.93 295.502 154.978 298.26 155.014C300.944 155.05 303.08 157.031 303.068 159.47C303.057 161.935 300.924 163.826 298.178 163.805Z" fill="#A0A2FE"/>
<path d="M239.848 216.465C238.477 216.454 237.35 215.445 237.362 214.242C237.374 213.028 238.508 212.048 239.891 212.069C241.231 212.087 242.303 213.078 242.295 214.3C242.291 215.532 241.223 216.476 239.848 216.465Z" fill="#4848B7"/>
<path d="M267.527 202.234C266.168 202.223 265.049 201.226 265.061 200.029C265.073 198.822 266.199 197.853 267.566 197.875C268.899 197.893 269.959 198.877 269.951 200.087C269.947 201.308 268.887 202.245 267.524 202.234H267.527Z" fill="#A0A2FE"/>
<path d="M262.848 175.992C261.081 175.981 259.632 174.681 259.647 173.131C259.663 171.564 261.123 170.307 262.902 170.332C264.631 170.357 266.006 171.633 265.998 173.204C265.99 174.792 264.619 176.006 262.848 175.992Z" fill="#4848B7"/>
<path d="M324.434 152.008C323.074 151.997 321.956 150.999 321.967 149.803C321.979 148.596 323.105 147.627 324.472 147.648C325.805 147.666 326.865 148.65 326.857 149.86C326.853 151.082 325.793 152.019 324.43 152.008H324.434Z" fill="#FF869F"/>
<path d="M274.121 153.46C275.115 153.136 275.927 152.873 276.735 152.599C277.015 152.505 277.314 152.383 277.504 152.682C277.679 152.959 277.469 153.161 277.201 153.294C276.211 153.781 275.216 154.26 274.172 154.768C274.288 154.883 274.405 154.998 274.521 155.114C275.298 155.852 276.079 156.587 276.856 157.326C277.1 157.56 277.298 157.837 277.003 158.104C276.692 158.388 276.323 158.248 276.032 158.035C275.314 157.502 274.618 156.947 273.845 156.349C273.803 156.533 273.772 156.681 273.737 156.825C273.507 157.733 273.298 158.644 273.037 159.541C272.948 159.848 272.812 160.291 272.311 160.183C271.841 160.082 271.985 159.649 272.004 159.347C272.086 158.198 272.195 157.052 272.292 155.906C272.303 155.766 272.311 155.625 272.327 155.405C271.647 155.647 271.056 155.863 270.458 156.068C270.109 156.187 269.755 156.302 269.394 156.389C269.052 156.472 268.664 156.508 268.493 156.162C268.322 155.82 268.621 155.618 268.94 155.481C269.623 155.182 270.315 154.897 271.002 154.602C271.154 154.537 271.297 154.469 271.484 154.382C270.952 153.925 270.435 153.507 269.961 153.06C269.464 152.588 268.99 152.094 268.54 151.59C268.326 151.349 268.19 151.039 268.505 150.794C268.827 150.542 269.161 150.718 269.429 150.92C270.361 151.63 271.282 152.354 272.21 153.071C272.334 153.172 272.466 153.265 272.668 153.413C272.859 152.7 273.034 152.04 273.204 151.385C273.302 151.003 273.348 150.607 273.484 150.235C273.542 150.077 273.76 149.965 273.904 149.828C274.075 149.987 274.374 150.142 274.389 150.304C274.428 150.794 274.37 151.291 274.327 151.785C274.28 152.3 274.199 152.815 274.117 153.46H274.121Z" fill="#A0A2FE"/>
<path d="M298.725 137.403C298.697 137.925 298.394 138.296 297.878 138.505C297.412 138.692 296.911 138.818 296.421 138.966C296.2 139.035 295.971 139.096 295.742 139.143C295.004 139.287 294.615 139.679 294.378 140.306C294.044 141.203 293.59 142.068 293.162 142.936C293.05 143.171 292.867 143.383 292.689 143.585C292.052 144.302 291.119 144.259 290.739 143.416C290.401 142.663 290.242 141.845 290.067 141.041C289.958 140.541 289.954 140.022 289.946 139.51C289.942 139.222 289.853 139.092 289.5 139.027C288.968 138.927 288.451 138.768 287.946 138.588C287.678 138.494 287.433 138.328 287.22 138.156C286.668 137.698 286.711 137.104 287.371 136.768C287.927 136.484 288.529 136.235 289.146 136.08C289.993 135.868 290.37 135.435 290.447 134.686C290.517 133.987 290.661 133.285 290.871 132.607C290.995 132.2 291.244 131.789 291.554 131.465C292.238 130.745 293.244 130.878 293.597 131.757C293.893 132.488 294.048 133.267 294.223 134.03C294.545 135.432 294.339 135.23 295.901 135.734C296.538 135.94 297.198 136.098 297.827 136.322C298.371 136.513 298.709 136.873 298.721 137.403H298.725Z" fill="#4848B7"/>
<path d="M235.759 175.113C233.475 175.095 231.596 173.417 231.619 171.413C231.638 169.389 233.53 167.76 235.829 167.793C238.063 167.825 239.846 169.475 239.834 171.507C239.826 173.561 238.047 175.135 235.759 175.117V175.113Z" fill="#FBC02D"/>
</svg>
