<svg width="292" height="129" viewBox="0 0 292 129" fill="none" xmlns="http://www.w3.org/2000/svg">
<g clip-path="url(#clip0_17715_128042)">
<path d="M154.613 8.92731C150.867 4.53713 145.378 1.80848 139.673 0.92042C133.973 0.0323572 119.004 -2.26658 108.101 17.6862C106.231 21.1024 104.835 24.7477 103.535 28.4217C100.069 38.2047 94.4073 50.7343 92.735 60.9792C92.692 61.237 94.8406 58.845 95.0053 59.0491C95.17 59.2461 95.4565 59.2747 95.7143 59.289C99.1198 59.4645 102.525 59.6364 105.934 59.8119C109.526 59.9945 113.121 60.1807 116.716 60.0697C121.307 59.9264 125.865 59.3034 130.449 59.0205C143.344 58.2184 158.326 64.51 171.071 62.3829C168.324 45.3916 163.483 23.4872 154.488 8.81272" fill="#3D3D9B"/>
<path d="M63.7264 86.9587L63.6762 86.8871C63.6154 86.7976 57.535 77.9456 59.9091 70.2324C61.1231 66.2898 64.3065 63.3033 69.3734 61.3661C86.705 54.7307 97.6196 50.9779 120.315 50.9779C122.464 50.9779 124.741 51.0137 127.087 51.0817C128.49 51.1247 129.984 51.1426 131.66 51.1426C136.594 51.1426 142.144 50.9636 148.021 50.7738C154.685 50.5589 161.574 50.3369 168.525 50.3369C189.337 50.3369 214.142 52.1847 221.264 66.5942C223.545 71.21 223.66 75.4175 221.605 79.1094C214.962 91.041 187.482 93.8162 187.206 93.8412H187.192L63.7299 86.9516L63.7264 86.9587Z" fill="#A0A2FE"/>
<path d="M168.52 50.5195C191.599 50.5195 214.341 53.0011 221.098 66.6801C232.292 89.3329 187.183 93.6694 187.183 93.6694L63.8215 86.7869C63.8215 86.7869 51.1129 68.5494 69.4363 61.538C86.1949 55.1246 97.2743 51.1641 120.314 51.1641C122.462 51.1641 124.707 51.1999 127.078 51.268C128.532 51.3109 130.065 51.3288 131.658 51.3288C142.129 51.3288 155.378 50.5231 168.52 50.5231M168.52 50.165C161.569 50.165 154.676 50.3871 148.012 50.6019C142.139 50.7917 136.589 50.9707 131.658 50.9707C129.986 50.9707 128.489 50.9493 127.089 50.9099C124.743 50.8418 122.462 50.806 120.314 50.806C97.5822 50.806 86.6569 54.5624 69.3074 61.2049C64.1868 63.1637 60.9639 66.186 59.7357 70.1858C59.041 72.4418 58.6507 76.2447 60.7276 81.5659C61.963 84.7279 63.467 86.905 63.5279 86.9946L63.6281 87.1378L63.8036 87.1485L187.166 94.031H187.194H187.223C187.291 94.0239 194.241 93.3399 201.912 91.195C212.268 88.298 218.946 84.2659 221.761 79.2061C223.845 75.4605 223.734 71.1957 221.424 66.5262C214.259 52.0271 189.389 50.1686 168.523 50.1686L168.52 50.165Z" fill="#0B1344"/>
<path d="M208.202 64.9033L175.158 67.7501C175.158 67.7501 165.826 68.1225 162.023 71.4743C162.023 71.4743 157.003 73.032 154.26 72.8601C151.517 72.6882 152.365 76.3156 155.058 76.0363C155.058 76.0363 150.45 79.9968 151.112 82.2707C151.774 84.5445 193.581 76.4374 193.581 76.4374L208.199 64.9033H208.202Z" fill="#8187E2"/>
<path d="M267.681 81.2148H24.3195C11.2549 81.2148 0.664062 91.8049 0.664062 104.868C0.664062 117.932 11.2549 128.522 24.3195 128.522H267.681C280.745 128.522 291.336 117.932 291.336 104.868C291.336 91.8049 280.745 81.2148 267.681 81.2148Z" fill="#D5D4E6" stroke="#0B1344" stroke-width="0.35809"/>
<path d="M22.325 85.3467H171.301V124.396H22.325C13.3835 124.396 6.125 117.138 6.125 108.196V101.547C6.125 92.6052 13.3835 85.3467 22.325 85.3467Z" fill="#D81B60"/>
<path d="M253.095 102.667C255.438 102.667 257.338 100.768 257.338 98.424C257.338 96.0805 255.438 94.1807 253.095 94.1807C250.751 94.1807 248.852 96.0805 248.852 98.424C248.852 100.768 250.751 102.667 253.095 102.667Z" stroke="#0B1344" stroke-width="1.43236" stroke-miterlimit="10" stroke-linecap="round"/>
<path d="M251.758 113.776L266.382 93.4365" stroke="#0B1344" stroke-width="1.43236" stroke-miterlimit="10" stroke-linecap="round"/>
<path d="M265.376 113.139C267.72 113.139 269.62 111.239 269.62 108.896C269.62 106.552 267.72 104.652 265.376 104.652C263.033 104.652 261.133 106.552 261.133 108.896C261.133 111.239 263.033 113.139 265.376 113.139Z" stroke="#0B1344" stroke-width="1.43236" stroke-miterlimit="10" stroke-linecap="round"/>
<path d="M130.334 57.3693C135.967 57.5197 142.216 57.9279 149.202 56.8608C178.168 52.4348 212.179 53.4984 221.103 69.992C222.059 71.7574 222.603 73.3974 222.8 74.9264C223.101 72.4914 222.621 69.752 221.103 66.6761C209.909 44.0233 154.878 52.0803 127.083 51.2603C99.2881 50.4403 87.7612 54.5189 69.4413 61.5303C60.9904 64.7639 59.1426 70.3894 59.6046 75.5065C61.7101 59.8473 102.543 56.6173 130.334 57.3657V57.3693Z" fill="#8187E2"/>
<path d="M151.059 58.8521C151.539 62.6944 148.775 66.6978 145.405 68.6172C142.035 70.5365 137.942 70.8158 134.107 70.2536C131.379 69.8526 121.241 67.217 121.753 57.2729C121.746 56.4958 121.961 55.7403 122.161 54.9883C123.934 48.2813 124.496 41.252 123.812 34.3516C131.242 36.2459 138.888 37.2736 146.551 37.4025C148.044 37.4276 149.648 37.3846 150.859 36.5037C150.135 43.9269 150.2 51.436 151.059 58.8485" fill="#938984"/>
<path d="M151.059 58.8521C151.539 62.6944 148.775 66.6978 145.405 68.6172C142.035 70.5365 137.942 70.8158 134.107 70.2536C131.379 69.8526 121.241 67.217 121.753 57.2729C121.746 56.4958 121.961 55.7403 122.161 54.9883C123.934 48.2813 124.496 41.252 123.812 34.3516C131.242 36.2459 138.888 37.2736 146.551 37.4025C148.044 37.4276 149.648 37.3846 150.859 36.5037C150.135 43.9269 150.2 51.436 151.059 58.8485" stroke="#0B1344" stroke-width="0.35809"/>
<path d="M160.158 36.873C158.381 53.7462 146.314 66.222 133.791 58.7737C115.006 47.5942 113.91 36.9911 115.138 25.3282C116.915 8.45496 123.038 1.45073 138.106 3.03706C146.479 3.91796 153.522 8.92406 157.83 16.0966C161.278 21.8368 160.949 29.3746 160.158 36.873Z" fill="#AAA09A" stroke="#0B1344" stroke-width="0.35809"/>
<path d="M142.796 2.35616C140.648 1.47167 138.356 0.877245 135.953 0.623001C120.881 -0.963336 114.761 6.0409 112.985 22.9141C111.868 33.5243 112.556 43.7406 126.861 53.8316C126.629 51.9265 126.629 49.4485 126.471 47.0207C126.056 40.7076 126.066 34.1115 126.643 27.8128C127.216 21.514 130.116 15.0683 133.407 9.66477C135.541 6.16265 138.718 2.90045 142.782 2.35257H142.796V2.35616Z" fill="#938984"/>
<path d="M152.52 34.58C153.504 34.5616 154.283 33.4904 154.258 32.1873C154.234 30.8843 153.416 29.8428 152.431 29.8612C151.447 29.8796 150.668 30.9509 150.693 32.2539C150.717 33.557 151.535 34.5984 152.52 34.58Z" fill="#0B1344"/>
<path d="M144.602 38.2508C151.674 38.9742 146.306 35.028 145.969 34.3369" stroke="#0B1344" stroke-width="0.35809" stroke-miterlimit="10"/>
<path d="M137.535 34.58C138.52 34.5616 139.298 33.4904 139.274 32.1873C139.25 30.8843 138.432 29.8428 137.447 29.8612C136.462 29.8796 135.684 30.9509 135.708 32.2539C135.732 33.557 136.55 34.5984 137.535 34.58Z" fill="#0B1344"/>
<path d="M137.442 42.169C138.62 43.8771 145.112 52.55 150.186 44.1134C150.218 44.0633 150.172 43.9953 150.118 44.0168C149.094 44.4679 143.619 46.527 137.521 42.0902C137.467 42.0508 137.402 42.1153 137.442 42.1726V42.169Z" fill="white" stroke="#0B1344" stroke-width="0.35809"/>
<path d="M139.636 44.6999C139.636 44.6999 145.051 47.3712 149.197 45.3265C149.197 45.3265 147.607 47.6505 145.022 47.5897C142.44 47.5288 139.633 44.6963 139.633 44.6963L139.636 44.6999Z" fill="#0B1344"/>
<path d="M131.188 28.4278C131.277 27.9802 131.549 27.5898 131.857 27.2532C133.3 25.6562 135.664 24.9579 137.741 25.5165" stroke="#0B1344" stroke-width="0.35809" stroke-miterlimit="10"/>
<path d="M158.334 28.4278C158.245 27.9802 157.973 27.5898 157.665 27.2532C156.222 25.6562 153.858 24.9579 151.781 25.5165" stroke="#0B1344" stroke-width="0.35809" stroke-miterlimit="10"/>
<path d="M141.526 4.7666C137.462 5.31448 134.285 8.58026 132.151 12.0788C128.86 17.4788 125.963 23.9244 125.387 30.2268C124.81 36.5292 124.8 43.1216 125.215 49.4347C125.759 57.7209 125.842 60.9759 131.557 72.7428C128.47 72.8574 126.3 72.8108 124.101 72.8144C115.436 72.8287 102.537 72.843 93.875 72.8574C95.712 59.2858 98.7379 52.3711 101.739 43.4367C103.801 37.2919 104.829 33.9115 106.892 27.7667C108.431 23.1796 110.859 17.6041 113.294 13.4216C115.729 9.23915 119.135 5.4792 123.525 3.44525C127.736 1.49366 132.259 0.537565 136.896 0.738095C141.533 0.938625 145.769 2.1239 147.986 3.42735C148.917 3.97523 143.492 5.62602 142.353 4.77019" fill="#4848B7"/>
<path d="M153.47 4.65851C161.645 7.07562 163.296 16.1818 162.981 23.0214C160.682 22.366 158.401 22.0617 155.977 22.0724C152.628 22.0832 149.28 22.0939 145.929 22.1046C146.083 19.6374 145.47 17.1165 144.213 15.0574C144.26 17.4817 144.607 20.2927 143.053 22.2515C143.694 18.5273 143.272 17.4495 142.437 15.1111C142.437 17.428 142.67 20.0349 141.778 22.119C135.261 22.6812 129.392 23.0572 122.86 23.3615C121.969 18.4342 123.244 10.9573 126.764 7.7166C130.284 4.47588 136.002 3.54843 140.593 3.16528C145.184 2.78212 147.884 3.21899 153.47 4.65493" fill="#4848B7"/>
<path d="M109.322 76.5094C115.936 79.1128 122.113 82.8226 127.517 87.4419C129.279 88.9495 130.958 90.5501 132.638 92.1508C135.57 94.9475 138.507 97.7477 141.439 100.544C141.532 100.634 141.629 100.723 141.686 100.842C141.891 101.239 141.558 101.73 141.153 101.919C140.358 102.292 139.43 101.945 138.632 101.583C134.976 99.9249 132.014 96.942 128.691 94.6932C129.021 96.6305 127.76 98.4209 126.217 99.266C124.76 100.065 124.251 99.4522 122.59 99.4666C122.246 99.4666 119.252 99.1765 117.906 98.2204C115.65 96.6162 111.22 93.909 111.61 93.3182C112.212 92.4086 113.584 92.6235 114.626 92.9493C109.677 91.0837 105.204 87.9719 101.734 83.9792C103.962 81.4654 106.189 78.9516 108.42 76.4414" fill="#AAA09A"/>
<path d="M109.322 76.5094C115.936 79.1128 122.113 82.8226 127.517 87.4419C129.279 88.9495 130.958 90.5501 132.638 92.1508C135.57 94.9475 138.507 97.7477 141.439 100.544C141.532 100.634 141.629 100.723 141.686 100.842C141.891 101.239 141.558 101.73 141.153 101.919C140.358 102.292 139.43 101.945 138.632 101.583C134.976 99.9249 132.014 96.942 128.691 94.6932C129.021 96.6305 127.76 98.4209 126.217 99.266C124.76 100.065 124.251 99.4522 122.59 99.4666C122.246 99.4666 119.252 99.1765 117.906 98.2204C115.65 96.6162 111.22 93.909 111.61 93.3182C112.212 92.4086 113.584 92.6235 114.626 92.9493C109.677 91.0837 105.204 87.9719 101.734 83.9792C103.962 81.4654 106.189 78.9516 108.42 76.4414" stroke="#0B1344" stroke-width="0.35809"/>
<path d="M147.988 3.42667C146.427 1.64696 120.963 -8.52637 108.104 17.6858C106.389 21.1808 103.03 28.228 101.73 31.8984C98.2641 41.6814 93.7987 51.0956 91.3852 61.1901C85.8312 84.4194 92.7352 77.4832 93.8775 77.4832C94.1317 77.4832 101.397 78.4787 101.723 78.5038C101.895 64.8784 100.273 -11.9963 147.985 3.42667H147.988Z" fill="#3D3D9B"/>
<path d="M78.6909 64.499C78.6909 64.499 94.2141 67.5893 111.728 76.3661C111.728 76.3661 113.805 84.4876 107.539 90.4677C107.539 90.4677 62.1472 86.5001 60.8438 80.853" fill="#A0A2FE"/>
<path d="M78.6909 64.499C78.6909 64.499 94.2141 67.5893 111.728 76.3661C111.728 76.3661 113.805 84.4876 107.539 90.4677C107.539 90.4677 62.1472 86.5001 60.8438 80.853" stroke="#0B1344" stroke-width="0.35809"/>
<path d="M164.27 72.2197C161.867 73.9386 158.709 74.0173 155.765 74.2823C155.192 74.3325 154.551 74.4327 154.211 74.8982C153.924 75.2886 153.949 75.8436 154.168 76.2733C154.386 76.703 154.766 77.0289 155.163 77.301C156.99 78.5472 159.428 78.8516 161.505 78.0924" fill="#AAA09A"/>
<path d="M164.27 72.2197C161.867 73.9386 158.709 74.0173 155.765 74.2823C155.192 74.3325 154.551 74.4327 154.211 74.8982C153.924 75.2886 153.949 75.8436 154.168 76.2733C154.386 76.703 154.766 77.0289 155.163 77.301C156.99 78.5472 159.428 78.8516 161.505 78.0924" stroke="#0B1344" stroke-width="0.35809"/>
<path d="M179.943 70.1784C177.365 70.1068 174.787 70.0352 172.212 69.9635C171.102 69.9313 167.851 70.5114 164.997 71.8041C161.366 73.4513 160.768 74.5077 157.48 76.7637C156.302 77.5694 154.311 79.9614 153.591 81.2004C152.936 82.3284 150.48 86.7902 150.218 88.0686C150.218 88.0686 149.541 88.7561 148.704 89.6119C148.406 89.9163 148.392 90.4248 148.714 90.7077C149.867 91.7247 152.044 90.7972 153.194 89.7373C152.685 90.1908 152.351 90.5167 152.191 90.7148C151.887 91.0873 152.571 92.0075 152.993 92.2403C154.934 93.3038 156.682 90.8545 158.164 89.7838C157.595 90.7399 157.752 91.0873 158.222 91.2985C158.966 91.6351 160.477 91.4024 161.369 90.4427C162.766 88.9423 167.421 84.6631 168.259 84.2585C169.752 83.5351 172.921 83.1054 174.561 83.3561C177.583 83.8145 179.574 83.8073 182.597 83.3561C183.069 83.2845 183.27 83.9863 183.589 83.6282C183.854 83.331 183.925 82.9121 183.979 82.5182C184.308 80.1046 184.258 77.6374 183.829 75.2382C183.445 73.0825 182.521 70.7227 180.48 69.9277" fill="#AAA09A"/>
<path d="M179.943 70.1784C177.365 70.1068 174.787 70.0352 172.212 69.9635C171.102 69.9313 167.851 70.5114 164.997 71.8041C161.366 73.4513 160.768 74.5077 157.48 76.7637C156.302 77.5694 154.311 79.9614 153.591 81.2004C152.936 82.3284 150.48 86.7902 150.218 88.0686C150.218 88.0686 149.541 88.7561 148.704 89.6119C148.406 89.9163 148.392 90.4248 148.714 90.7077C149.867 91.7247 152.044 90.7972 153.194 89.7373C152.685 90.1908 152.351 90.5167 152.191 90.7148C151.887 91.0873 152.571 92.0075 152.993 92.2403C154.934 93.3038 156.682 90.8545 158.164 89.7838C157.595 90.7399 157.752 91.0873 158.222 91.2985C158.966 91.6351 160.477 91.4024 161.369 90.4427C162.766 88.9423 167.421 84.6631 168.259 84.2585C169.752 83.5351 172.921 83.1054 174.561 83.3561C177.583 83.8145 179.574 83.8073 182.597 83.3561C183.069 83.2845 183.27 83.9863 183.589 83.6282C183.854 83.331 183.925 82.9121 183.979 82.5182C184.308 80.1046 184.258 77.6374 183.829 75.2382C183.445 73.0825 182.521 70.7227 180.48 69.9277" stroke="#0B1344" stroke-width="0.35809"/>
<path d="M149.633 88.6382C153.59 85.1969 155.054 81.813 159.903 78.1426L149.633 88.6382Z" fill="#AAA09A"/>
<path d="M149.633 88.6382C153.59 85.1969 155.054 81.813 159.903 78.1426" stroke="#0B1344" stroke-width="0.35809"/>
<path d="M153.195 89.7403C157.7 85.2427 158.37 83.3842 162.022 81.3467L153.195 89.7403Z" fill="#AAA09A"/>
<path d="M153.195 89.7403C157.7 85.2427 158.37 83.3842 162.022 81.3467" stroke="#0B1344" stroke-width="0.35809"/>
<path d="M158.164 89.7832C159.765 87.6776 161.061 85.8406 164.273 83.6348L158.164 89.7832Z" fill="#AAA09A"/>
<path d="M158.164 89.7832C159.765 87.6776 161.061 85.8406 164.273 83.6348" stroke="#0B1344" stroke-width="0.35809"/>
<path d="M114.547 92.9277C116.033 93.472 117.458 94.1918 118.776 95.0691" stroke="#0B1344" stroke-width="0.35809"/>
<path d="M122.038 93.082C122.715 93.9307 122.958 95.1088 122.672 96.158C122.385 97.2072 121.916 98.1597 120.899 98.5501C120.147 98.8401 119.18 99.1517 117.898 98.217" stroke="#0B1344" stroke-width="0.35809"/>
<path d="M122.789 99.427C123.928 99.427 124.68 98.4996 125.246 97.7046C126.313 96.1935 126.083 94.9939 125.518 93.8301" stroke="#0B1344" stroke-width="0.35809"/>
</g>
<defs>
<clipPath id="clip0_17715_128042">
<rect width="291.03" height="128.705" fill="white" transform="translate(0.484375)"/>
</clipPath>
</defs>
</svg>
